<?xml version="1.0" standalone="no"?>
<!DOCTYPE svg PUBLIC "-//W3C//DTD SVG 20010904//EN"
 "http://www.w3.org/TR/2001/REC-SVG-20010904/DTD/svg10.dtd">
<svg version="1.0" xmlns="http://www.w3.org/2000/svg"
 width="500.000000pt" height="500.000000pt" viewBox="0 0 500.000000 500.000000"
 preserveAspectRatio="xMidYMid meet">
<metadata>
Created by potrace 1.11, written by Peter Selinger 2001-2013
</metadata>
<g transform="translate(0.000000,500.000000) scale(0.100000,-0.100000)"
fill="#000000" stroke="none">
<path d="M4260 4828 c0 -4 -5 -7 -12 -5 -7 1 -12 -5 -13 -13 0 -8 -7 -14 -14
-12 -7 1 -10 -2 -7 -7 4 -5 -1 -16 -9 -24 -8 -9 -15 -21 -15 -27 0 -6 -4 -9
-9 -6 -5 3 -14 -1 -21 -9 -7 -8 -9 -15 -6 -15 4 0 -9 -16 -29 -35 -19 -20 -35
-40 -35 -45 0 -6 -5 -10 -12 -10 -6 0 -9 -2 -6 -5 5 -6 -9 -23 -89 -114 -18
-20 -33 -42 -33 -49 0 -7 -4 -11 -8 -8 -4 2 -19 -12 -32 -32 -24 -37 -41 -58
-98 -118 -16 -17 -32 -39 -35 -48 -4 -10 -12 -14 -18 -10 -7 4 -9 3 -6 -3 3
-5 -7 -24 -23 -42 -17 -18 -30 -35 -30 -39 0 -4 -9 -14 -20 -22 -11 -8 -20
-20 -20 -27 0 -7 -11 -20 -25 -29 -14 -9 -24 -19 -21 -21 2 -2 -8 -18 -22 -34
-72 -78 -81 -89 -76 -89 3 0 -1 -6 -8 -14 -7 -8 -17 -11 -22 -8 -5 3 -6 0 -3
-5 4 -6 -5 -23 -18 -37 -14 -15 -25 -29 -25 -32 0 -7 -68 -74 -75 -74 -3 0
-13 4 -23 9 -48 26 -138 66 -144 63 -5 -1 -8 2 -8 7 0 5 -10 12 -22 16 -13 4
-26 8 -30 10 -19 6 -23 7 -30 6 -5 0 -8 4 -8 9 0 6 -8 10 -18 10 -10 0 -23 5
-30 12 -7 7 -12 8 -12 3 0 -4 -10 0 -22 11 -12 10 -18 14 -15 7 5 -8 1 -8 -18
0 -14 7 -25 16 -25 20 0 5 -5 5 -12 1 -6 -4 -16 0 -22 8 -6 8 -49 29 -96 48
-47 18 -91 38 -97 43 -7 5 -13 6 -13 3 0 -4 -10 -1 -22 6 -13 7 -25 13 -28 13
-3 1 -18 7 -35 14 -16 7 -40 14 -52 14 -13 1 -23 6 -23 11 0 4 -7 6 -15 2 -8
-3 -15 -1 -15 5 0 6 -4 7 -10 4 -5 -3 -10 -1 -10 4 0 6 -9 11 -19 11 -11 0
-22 4 -26 10 -3 5 -12 7 -20 3 -8 -3 -15 -1 -15 5 0 6 -24 18 -52 28 -29 9
-58 21 -64 25 -6 5 -24 11 -40 12 -16 2 -47 12 -68 22 -21 10 -44 18 -52 18
-8 0 -14 4 -14 9 0 4 -14 8 -30 8 -17 0 -38 4 -48 9 -51 26 -73 34 -96 34 -14
0 -26 3 -26 8 0 5 -9 9 -20 9 -11 0 -20 5 -20 11 0 5 -4 8 -9 4 -5 -3 -29 1
-53 10 -24 8 -55 15 -70 15 -16 0 -28 4 -28 10 0 5 -10 9 -22 9 -20 0 -54 5
-68 12 -3 1 -9 3 -15 4 -5 2 -12 4 -15 5 -12 4 -59 10 -122 14 -65 4 -67 4
-102 -30 -19 -19 -33 -34 -30 -34 5 0 -7 -16 -48 -62 -15 -17 -25 -34 -22 -39
3 -5 0 -9 -6 -9 -6 0 -17 -15 -25 -33 -8 -19 -21 -39 -29 -47 -26 -21 -21 -84
9 -106 29 -22 33 -63 10 -108 -8 -16 -14 -34 -14 -40 2 -11 -2 -25 -22 -73 -4
-13 -6 -30 -3 -38 4 -8 1 -15 -6 -15 -6 0 -9 -4 -6 -8 3 -5 -1 -20 -8 -33 -7
-14 -11 -35 -9 -47 1 -12 -2 -22 -8 -22 -5 0 -7 -4 -4 -10 3 -5 1 -10 -5 -10
-6 0 -8 -5 -5 -10 3 -5 1 -10 -6 -10 -8 0 -8 -4 1 -15 9 -11 9 -15 1 -15 -7 0
-10 -4 -7 -8 3 -5 -2 -21 -10 -37 -8 -15 -12 -30 -10 -33 3 -2 -4 -26 -14 -52
-10 -26 -17 -50 -14 -53 2 -2 -1 -17 -7 -33 -6 -16 -15 -45 -20 -64 -4 -19
-15 -57 -23 -85 -36 -121 -48 -161 -48 -172 -1 -7 -5 -13 -9 -13 -5 0 -6 -7
-3 -15 3 -8 -1 -29 -10 -46 -9 -18 -16 -43 -16 -56 0 -13 -7 -37 -15 -53 -8
-16 -12 -36 -9 -44 4 -10 1 -16 -7 -16 -7 0 -10 -3 -6 -6 3 -3 -1 -23 -8 -45
-8 -21 -11 -39 -8 -39 4 0 2 -5 -4 -11 -6 -6 -9 -18 -6 -25 3 -8 0 -14 -7 -14
-6 0 -8 -4 -5 -10 3 -5 1 -10 -5 -10 -6 0 -9 -4 -5 -9 7 -12 -17 -91 -27 -91
-4 0 -5 -6 -2 -14 3 -8 0 -24 -6 -36 -7 -12 -13 -36 -15 -54 -2 -17 -8 -44
-13 -61 -23 -68 -35 -111 -37 -125 0 -9 -4 -21 -9 -28 -4 -6 -4 -16 -1 -22 3
-5 1 -10 -5 -10 -6 0 -9 -4 -5 -9 3 -5 1 -12 -4 -16 -5 -3 -9 -13 -9 -23 0 -9
-5 -30 -12 -47 -7 -16 -14 -41 -16 -55 -2 -14 -4 -31 -5 -37 -1 -7 -6 -13 -11
-13 -5 0 -6 -4 -3 -10 3 -5 1 -10 -6 -10 -10 0 -10 -3 -2 -11 8 -8 6 -23 -9
-56 -11 -24 -17 -51 -14 -59 3 -8 1 -14 -5 -14 -6 0 -8 -4 -4 -9 3 -5 1 -12
-5 -16 -6 -4 -8 -11 -5 -16 4 -5 2 -9 -4 -9 -5 0 -8 -10 -6 -21 3 -12 1 -27
-3 -33 -15 -24 -29 -76 -20 -76 5 0 2 -7 -6 -16 -16 -16 -29 -52 -25 -70 1 -5
-3 -22 -10 -39 -7 -16 -14 -42 -16 -57 -2 -15 -8 -35 -13 -45 -6 -10 -11 -31
-13 -48 -2 -16 -7 -35 -11 -40 -6 -9 -13 -35 -31 -110 -1 -5 -5 -14 -8 -20 -4
-5 -5 -18 -4 -27 2 -10 -2 -18 -8 -18 -5 0 -7 -3 -4 -6 3 -4 1 -16 -4 -27 -6
-11 -12 -29 -13 -41 -2 -11 -8 -39 -15 -61 -32 -102 -33 -93 9 -133 57 -55 90
-84 140 -122 25 -19 50 -42 57 -50 7 -8 13 -12 13 -8 0 5 12 -2 26 -15 14 -12
29 -22 32 -22 4 0 20 -13 36 -28 16 -15 33 -27 37 -27 5 0 11 0 14 0 3 0 14
-9 25 -20 11 -11 26 -20 34 -20 8 0 17 -7 20 -16 3 -8 10 -13 14 -10 5 3 19
-5 33 -17 13 -12 31 -22 39 -22 8 0 17 -2 20 -5 20 -21 52 -43 45 -30 -5 8 7
3 26 -11 18 -14 50 -31 69 -38 19 -7 49 -19 65 -26 98 -43 321 -129 328 -127
4 1 7 -3 7 -9 0 -6 8 -9 19 -6 10 2 27 0 37 -6 19 -11 34 -16 67 -19 9 -1 17
-5 17 -8 0 -4 6 -7 13 -8 37 -5 53 -9 62 -14 11 -6 78 -20 108 -21 9 -1 17 -4
17 -7 0 -3 8 -6 18 -6 9 -1 35 -4 57 -8 22 -5 63 -10 90 -12 28 -1 50 -4 50
-4 0 -3 96 -11 163 -13 39 -1 72 2 72 6 0 5 4 6 9 3 10 -6 44 41 44 61 0 7 4
13 9 13 4 0 8 9 8 20 0 11 5 20 11 20 5 0 8 4 4 9 -3 5 1 16 9 24 16 16 49 85
50 105 1 8 9 18 19 23 9 6 17 15 17 22 1 7 9 30 20 52 10 22 16 43 13 48 -2 4
1 6 7 5 6 -2 20 19 31 46 11 27 29 61 39 76 11 15 17 30 13 34 -3 3 -1 6 6 6
7 0 10 4 6 9 -3 5 -1 12 5 16 6 4 8 11 5 16 -4 5 -1 9 6 9 7 0 10 3 6 6 -3 3
3 14 14 25 11 11 17 24 14 29 -4 6 -1 10 4 10 6 0 10 3 10 8 -3 14 23 72 32
72 5 0 9 5 9 10 0 13 42 104 51 110 4 3 15 25 25 50 9 25 23 52 30 60 7 9 25
42 39 73 14 32 35 71 46 87 12 15 18 33 15 39 -4 6 -2 11 4 11 6 0 9 4 6 8 -3
5 4 18 14 30 11 12 20 28 20 36 0 8 4 17 9 21 5 3 12 19 16 35 4 16 12 33 19
37 7 5 21 29 31 55 10 26 28 62 41 80 13 17 24 39 24 49 0 9 8 27 19 40 18 24
52 85 51 94 -1 19 2 25 14 38 19 19 59 90 47 83 -5 -4 -3 7 5 24 9 16 20 30
25 30 6 0 7 5 4 10 -3 6 -1 10 5 10 6 0 9 4 5 9 -3 5 -1 12 5 16 6 4 8 11 5
16 -4 5 -1 9 5 9 6 0 8 5 5 10 -3 5 -1 10 5 10 6 0 8 5 5 10 -3 6 1 13 9 16 9
3 16 10 16 14 0 5 5 21 11 37 6 15 10 29 9 31 -1 2 9 18 23 35 13 18 30 50 38
72 8 22 22 49 31 59 10 11 23 35 29 55 6 20 18 44 27 54 8 9 11 17 6 17 -5 0
0 7 10 15 11 8 16 15 12 15 -5 0 -3 7 4 15 7 8 9 15 5 15 -4 0 0 12 9 26 32
47 74 134 62 127 -6 -3 -2 5 10 18 11 13 28 42 38 64 9 22 21 47 27 55 5 8 23
45 40 82 l31 67 41 -5 c67 -8 81 0 102 58 11 29 20 62 21 73 0 11 4 30 8 42 9
29 17 70 21 108 1 17 4 35 5 40 11 43 -17 74 -148 163 -34 23 -68 40 -74 36
-6 -4 -8 -3 -5 3 4 6 -8 17 -26 24 -36 15 -67 39 -67 52 0 4 5 5 10 2 6 -3 10
-2 10 4 0 6 14 26 30 44 17 19 30 38 30 41 0 4 17 24 38 43 20 20 30 33 22 29
-9 -4 -8 -2 3 7 9 8 17 19 17 24 0 6 9 13 20 16 11 3 20 12 20 21 0 9 5 16 10
16 6 0 15 11 22 25 6 13 16 22 21 18 6 -4 8 0 4 10 -4 12 -1 17 10 17 9 0 14
3 11 6 -6 5 16 33 80 98 17 19 32 39 32 45 0 5 6 14 13 18 8 4 27 27 44 50 17
23 33 39 37 36 3 -3 6 0 6 7 0 7 10 22 23 34 12 12 23 27 24 33 1 6 17 26 35
44 18 19 51 57 73 84 22 28 51 62 65 76 14 14 26 32 28 40 2 8 16 26 33 40 16
15 29 32 29 38 0 6 7 11 15 11 8 0 15 7 15 15 0 8 7 15 15 15 8 0 15 3 15 8 0
15 -40 72 -50 72 -6 0 -8 5 -5 10 3 6 2 10 -3 10 -5 0 -21 11 -36 25 -14 13
-26 22 -26 19 0 -3 -10 4 -22 16 -12 11 -30 20 -39 20 -10 0 -21 5 -24 10 -4
6 -11 8 -16 5 -5 -4 -9 -2 -9 3 0 5 -7 9 -15 9 -8 0 -15 -4 -15 -9z"/>
</g>
</svg>
